<svg xmlns="http://www.w3.org/2000/svg" xmlns:xlink="http://www.w3.org/1999/xlink" viewBox="0 0 32 32" id="Earth"><defs><linearGradient id="a"><stop offset="0" stop-color="#4285f4" class="stopColor000092 svgShape"></stop><stop offset="1" stop-color="#ea4335" class="stopColorff00f3 svgShape"></stop></linearGradient><linearGradient id="b" x1="2.5" x2="28" y1="16" y2="16" gradientUnits="userSpaceOnUse" xlink:href="#a"></linearGradient></defs><path style="line-height:normal;text-indent:0;text-align:start;text-decoration-line:none;text-decoration-style:solid;text-decoration-color:#000;text-transform:none;block-progression:tb;isolation:auto;mix-blend-mode:normal" fill="url(#b)" d="M11 0C9.9 0 9 .9 9 2c0 .814.495 1.517 1.197 1.828C5.652 6.002 2.5 10.63 2.5 16c0 5.37 3.152 9.998 7.697 12.172A2.007 2.007 0 0 0 9 30c0 1.1.9 2 2 2h19c1.1 0 2-.9 2-2s-.9-2-2-2h-.018c-.11-2.503-1.044-4.161-2.22-5.39A13.414 13.414 0 0 0 29.5 16c0-2.26-.564-4.386-1.547-6.258C29.101 8.388 29.973 6.6 29.996 4H30c1.1 0 2-.9 2-2s-.9-2-2-2H11zm0 1h19c.563 0 1 .437 1 1s-.437 1-1 1H11c-.563 0-1-.437-1-1s.437-1 1-1zm1.535 3h16.46c-.034 3.758-1.847 5.44-3.798 6.928-.984.75-2.004 1.426-2.81 2.275C21.58 14.053 21 15.117 21 16.5c0 1.383.588 2.421 1.4 3.217.813.795 1.834 1.395 2.817 2.07 1.873 1.288 3.593 2.76 3.752 6.213H12.03c.16-3.452 1.88-4.925 3.752-6.213.983-.675 2.004-1.275 2.817-2.07.812-.796 1.4-1.834 1.4-3.217s-.58-2.447-1.387-3.297c-.806-.85-1.826-1.525-2.81-2.275-1.922-1.466-3.701-3.13-3.785-6.774.17-.057.344-.104.517-.154zm-1.508.537c.136 2.406 1.026 4.074 2.157 5.352l-.121.017c-.286.035-.157.1-.157.219 0 .162.531.188.531.188s.34.131.22.374c-.122.244.086.344-.157.344-.106 0-.35-.033-.594-.031-.315 0-.617-.099-.625.031-.03.5-.031 1.219-.031 1.219s.427.21.656.156c.318-.074.784.175 1-.406.017-.045.028-.142.063-.188.137-.18.288-.516.502-.67.24.203.485.397.726.58.838.64 1.642 1.205 2.291 1.794-.031 0-.172-.024-.175-.018-.041.06-.614.268-.938.188-.324-.081-.406-.842-.406-.842s-.059-.366-.281-.346l-1.75.158s-.5.221-.5.342c0 0-.142-.102-.344 0-.203.102-.513.088-.594.25-.081.163-.4.466-.563.75-.161.283-.627.306-.75.813-.121.506-.207 1.355-.187 1.72.02.365.01 1.268.375 1.467.365.2.849.692 1.031.875.182.182 1.16.33 1.281.25.122-.081.559-.25.782-.25.223 0 .702.037.844.158.141.122.315.384.437.688.084.21.165.487.242.718-.26.174-.506.34-.775.526-1.855 1.275-3.807 3.052-4.14 6.51a12.577 12.577 0 0 1-3.546-2.295l.375-.553.438-1.75-1.063-.656-1.218-.407-.813-1.968s-.758-.613-1.387-.897A12.501 12.501 0 0 1 3.5 16c0-.737.077-1.456.2-2.158.768-.59 1.8-1.06 1.8-1.06s.57-.066-.406-1.688a2.45 2.45 0 0 1-.278-.656c.41-.824.899-1.601 1.473-2.31-.05.297-.244 1.53.117 1.747.405.243.794-.507.875-.75.081-.243.926-1.17 1.25-1.656.231-.347.15-1.02-.088-1.414a12.596 12.596 0 0 1 2.584-1.518zm5.73 2.465c-.221-.01-.45.01-.687.05a4.556 4.556 0 0 0-1.496.567L14 7.95l.477.461c1.095 1.06 2.434 1.868 3.54 2.678 1.107.81 1.943 1.604 2.19 2.527l.459 1.71.504-1.698c.361-1.216 1.737-2.2 3.303-3.291l-.414-.893c-2.062.553-3.198-.344-4.504-1.25-.653-.452-1.33-.914-2.155-1.107a3.288 3.288 0 0 0-.642-.084zm.143 1.047a.764.764 0 0 1 .272.01c.59.137 1.17.51 1.812.955.935.648 2.052 1.42 3.524 1.55a6.778 6.778 0 0 0-1.78 2.014c-.495-.887-1.226-1.643-2.12-2.297-.886-.647-1.783-1.301-2.628-1.98.3-.071.632-.217.92-.252zm11.041 1.705zm-.804.84zm-4.225 3.539c.061.07.601.68.87.68.283 0 1.037-.066 1.28.218.244.284 1.004.764 1.125 1.25.123.486.06 1.166.282 1.407.31.338.593.312.593.312l.375-.875.875-1 .186-.094a12.455 12.455 0 0 1-1.482 5.875c-.405-.344-.82-.66-1.233-.943-1.017-.7-1.996-1.286-2.683-1.96-.13-.125-.237-.256-.346-.388.3-.842.4-1.106.34-1.146-.06-.041-.544.158-.625.279-.028.043-.11.073-.201.1.04.094.095.18.146.27-.05-.09-.105-.177-.146-.27a2.934 2.934 0 0 1-.18-.541c.186-.025.56-.108 1.224-.62.598-.459 1.237-.483 1.344-.718.203-.446-.625-.844-.625-.844h-.75l-.49-.846a4.31 4.31 0 0 0 .121-.146zm-.496.717zm-2.059.627a.257.257 0 0 0-.181.076.257.257 0 0 0-.002.002.257.257 0 0 0-.074.18.257.257 0 0 0 .076.181.257.257 0 0 0 .181.076.257.257 0 0 0 .182-.076l.002-.002a.257.257 0 0 0 .072-.18.257.257 0 0 0-.072-.177.257.257 0 0 0-.006-.006.257.257 0 0 0-.178-.074zm1.793.021c-.029.099-.061.196-.082.3.02-.104.054-.201.082-.3zm-1.482 1.08a.257.257 0 0 0-.17.08.257.257 0 0 0-.07.174.257.257 0 0 0 0 .002.257.257 0 0 0 .076.182.257.257 0 0 0 .182.076.257.257 0 0 0 .181-.076l.002-.002a.257.257 0 0 0 .072-.18.257.257 0 0 0-.076-.18.257.257 0 0 0-.18-.076.257.257 0 0 0-.017 0zm-.227.924a.257.257 0 0 0-.168.082.257.257 0 0 0-.002 0v.002a.257.257 0 0 0-.068.172.257.257 0 0 0 .076.181.257.257 0 0 0 .002.002.257.257 0 0 0 .18.075.257.257 0 0 0 .182-.077l.002-.002a.257.257 0 0 0 .072-.18.257.257 0 0 0-.076-.179.257.257 0 0 0-.18-.076.257.257 0 0 0-.02 0zm-.47 1.062a.257.257 0 0 0-.168.082.257.257 0 0 0-.002 0v.002a.257.257 0 0 0-.069.172.257.257 0 0 0 0 .002.257.257 0 0 0 .077.18.257.257 0 0 0 .18.076.257.257 0 0 0 .18-.074.257.257 0 0 0 .077-.182.257.257 0 0 0-.076-.181l-.002-.002a.257.257 0 0 0-.18-.075.257.257 0 0 0-.017 0zm.908.391a.5.5 0 0 0-.195.04.5.5 0 0 0-.157.107.5.5 0 0 0-.002 0 .5.5 0 0 0-.105.154l-.002.006a.5.5 0 0 0-.04.193.5.5 0 0 0 .04.195.5.5 0 0 0 .107.157.5.5 0 0 0 0 .002.5.5 0 0 0 .155.105l.004.002a.5.5 0 0 0 .002 0 .5.5 0 0 0 .193.04.5.5 0 0 0 .195-.04.5.5 0 0 0 .156-.107.5.5 0 0 0 .002 0 .5.5 0 0 0 .106-.155.5.5 0 0 0 .002-.006.5.5 0 0 0 .039-.193.5.5 0 0 0-.04-.195.5.5 0 0 0-.107-.156.5.5 0 0 0 0-.002.5.5 0 0 0-.154-.106.5.5 0 0 0-.004-.002h-.002a.5.5 0 0 0-.193-.039zm-2.979.049zm4.29.951a.81.81 0 0 0-.811.81.81.81 0 0 0 .81.811.81.81 0 0 0 .811-.81.81.81 0 0 0-.81-.81zm-3.133.984c-.333.02-.692.128-1.059.34l-.02.01-.017.014c-.851.597-1.825 1.219-2.611 2.04-.786.823-1.381 1.883-1.381 3.241v.5H27.03v-.5c0-1.137-.411-2.074-1.004-2.824-.592-.75-1.355-1.333-2.103-1.864l-.262-.185-.277.16c-.72.415-1.18.478-1.522.426-.342-.052-.622-.236-.941-.49-.319-.255-.656-.583-1.149-.766a1.68 1.68 0 0 0-.394-.094 1.853 1.853 0 0 0-.322-.008zm-.004.989a.765.765 0 0 1 .373.05c.238.09.518.33.873.612.354.283.805.602 1.414.695.498.076 1.121-.147 1.775-.45.665.48 1.304.973 1.754 1.544.377.477.509 1.077.61 1.705H15.074c.12-.804.445-1.472.998-2.05.664-.695 1.57-1.285 2.436-1.891.232-.133.403-.196.545-.215zM11 29h19c.563 0 1 .437 1 1s-.437 1-1 1H11c-.563 0-1-.437-1-1s.437-1 1-1z" color="#000" font-family="sans-serif" font-weight="400" overflow="visible"></path></svg>